<?xml version="1.0" encoding="UTF-8" standalone="no"?>
<!-- Generator: Adobe Illustrator 21.0.2, SVG Export Plug-In . SVG Version: 6.00 Build 0)  -->

<svg
   xmlns:dc="http://purl.org/dc/elements/1.1/"
   xmlns:cc="http://creativecommons.org/ns#"
   xmlns:rdf="http://www.w3.org/1999/02/22-rdf-syntax-ns#"
   xmlns:svg="http://www.w3.org/2000/svg"
   xmlns="http://www.w3.org/2000/svg"
   xmlns:sodipodi="http://sodipodi.sourceforge.net/DTD/sodipodi-0.dtd"
   xmlns:inkscape="http://www.inkscape.org/namespaces/inkscape"
   version="1.1"
   x="0px"
   y="0px"
   viewBox="0 0 668.41919 711.34332"
   xml:space="preserve"
   id="svg4003"
   sodipodi:docname="icon.svg"
   inkscape:version="0.92.5 (2060ec1f9f, 2020-04-08)"
   width="668.41919"
   height="711.34332"><metadata
   id="metadata4009"><rdf:RDF><cc:Work
       rdf:about=""><dc:format>image/svg+xml</dc:format><dc:type
         rdf:resource="http://purl.org/dc/dcmitype/StillImage" /></cc:Work></rdf:RDF></metadata><defs
   id="defs4007" /><sodipodi:namedview
   pagecolor="#ffffff"
   bordercolor="#666666"
   borderopacity="1"
   objecttolerance="10"
   gridtolerance="10"
   guidetolerance="10"
   inkscape:pageopacity="0"
   inkscape:pageshadow="2"
   inkscape:window-width="1848"
   inkscape:window-height="1016"
   id="namedview4005"
   showgrid="false"
   showguides="true"
   inkscape:guide-bbox="true"
   inkscape:zoom="0.96990741"
   inkscape:cx="148.94995"
   inkscape:cy="360.37828"
   inkscape:window-x="72"
   inkscape:window-y="27"
   inkscape:window-maximized="1"
   inkscape:current-layer="svg4003"><sodipodi:guide
     position="-25.758875,-73.128401"
     orientation="0,1"
     id="guide4015"
     inkscape:locked="false" /></sodipodi:namedview>
<style
   type="text/css"
   id="style3881">
	.st0{display:none;}
	.st1{display:inline;fill:#191717;}
	.st2{fill:#191717;}
</style>
<g
   id="BACK"
   class="st0"
   style="display:none"
   transform="translate(-25.980832,-78.956698)">
	<path
   class="st1"
   d="m 188.9,575.8 c -15.2,0 -30.7,-3.1 -46.5,-10.5 -5.9,-2.8 -8.5,-9.8 -5.7,-15.7 2.8,-5.9 9.8,-8.5 15.7,-5.7 57,26.6 111.2,-15.2 163.6,-55.7 6.1,-4.7 12,-9.3 17.9,-13.7 8,-7.6 16.7,-7.6 21.9,-7.6 1,0 1.9,0.1 2.9,0.4 69.1,17.3 143.2,10.5 208.5,-19.2 6,-2.7 13,-0.1 15.7,5.9 2.7,6 0.1,13 -5.9,15.7 -69.7,31.6 -148.7,39 -222.6,20.9 -3.1,0 -3.5,0.3 -4.4,1.3 -0.4,0.4 -0.8,0.8 -1.3,1.1 -6,4.5 -12,9.2 -18.2,13.9 -40.7,31.5 -89.2,68.9 -141.6,68.9 z"
   id="path3883"
   inkscape:connector-curvature="0"
   style="display:inline;fill:#191717" />
	<path
   class="st1"
   d="m 342.3,425.1 c -3.6,0 -6.2,-0.3 -7.2,-0.4 -41.8,-4.4 -42.9,-30.4 -42.9,-31.6 -0.1,-25.9 27.7,-39.8 44.5,-44 30.9,-9.8 50.1,-10.6 60.3,-2.4 4.2,3.3 6.2,7.6 6.7,11.3 6.6,20.7 -8.8,41.2 -19.7,50.6 -13.4,14.2 -31.6,16.5 -41.7,16.5 z M 316,392 c 0.9,2.3 6.1,7.5 21.8,9.1 0.2,0 0.4,0 0.6,0.1 0.1,0 18.1,2.4 28.8,-9.2 0.3,-0.4 0.7,-0.7 1.1,-1 4.4,-3.8 16.1,-16.5 12.9,-26 -3.4,-0.6 -13.5,-0.9 -37.6,6.8 -0.2,0.1 -0.5,0.2 -0.8,0.2 -5.6,1.4 -25.9,8.8 -26.8,20 z m -0.1,0.4 c 0,0.1 0,0.2 0,0.3 0,-0.1 0,-0.2 0,-0.3 z M 340,360.5 Z m 40.3,-1 c 0,0 0,0 0,0 0,0 0,0 0,0 z"
   id="path3885"
   inkscape:connector-curvature="0"
   style="display:inline;fill:#191717" />
	<circle
   class="st1"
   cx="544.20001"
   cy="306"
   r="20.1"
   id="circle3887"
   style="display:inline;fill:#191717" />
	<circle
   class="st1"
   cx="226.39999"
   cy="382.60001"
   r="20.1"
   id="circle3889"
   style="display:inline;fill:#191717" />
	<path
   class="st1"
   d="m 353.1,531.9 c -26.3,0 -46.4,-16.9 -47.4,-17.7 -5,-4.2 -5.6,-11.7 -1.4,-16.7 4.2,-5 11.7,-5.6 16.7,-1.4 0.4,0.3 18.1,14.8 37.8,11.6 12.6,-2 24.1,-11.1 34,-27.1 3.5,-5.6 10.8,-7.3 16.3,-3.8 5.6,3.5 7.3,10.8 3.8,16.3 -13.7,22.1 -30.8,34.9 -50.6,38 -3.1,0.6 -6.2,0.8 -9.2,0.8 z"
   id="path3891"
   inkscape:connector-curvature="0"
   style="display:inline;fill:#191717" />
</g>

<g
   id="g128"
   transform="translate(-25.980832,-78.956698)"><g
     id="FRONT">
	<path
   id="path3894"
   d="m 432.4,415.6 c -2.5,-1.7 -5.9,-1 -7.6,1.5 -9.9,14.9 -30.9,15.7 -32,15.7 -0.2,0 -0.3,0 -0.5,0 -25.9,0 -35.8,22.1 -36.2,23 -1.2,2.8 0.1,6 2.8,7.2 0.7,0.3 1.5,0.5 2.2,0.5 2.1,0 4.1,-1.2 5,-3.3 0.1,-0.2 6.9,-15.4 24.4,-16.4 v 28.3 c -0.7,6.1 -3.6,10.9 -8.7,14.5 -5.3,3.7 -12.4,5.6 -21.1,5.6 -10.4,0 -18.9,-3.6 -25.2,-10.7 -6.4,-7.1 -9.6,-17.2 -9.6,-30.2 l 0.1,-31.2 c 0.5,-11.5 3.6,-20.6 9.5,-27.1 6.4,-7.1 14.8,-10.7 25.2,-10.7 8.7,0 15.8,1.9 21.1,5.6 5.3,3.7 8.3,8.8 8.8,15.4 v 0 c 0,0.2 0,0.5 0,0.7 0,3.8 3.1,6.9 6.9,6.9 3.8,0 6.9,-3.1 6.9,-6.9 0,-0.2 0,-0.5 0,-0.7 v 0 c -1,-9.9 -5.5,-17.7 -13.6,-23.6 -8.1,-5.9 -18.2,-8.8 -30.4,-8.8 -14.5,0 -26.2,4.8 -35.1,14.3 -8.4,8.9 -12.8,20.6 -13.3,35 v 0 0 c 0,1 -0.1,2 -0.1,3 l 0.1,28.1 h -0.1 c 0,15.9 4.5,28.6 13.4,38.1 8.9,9.5 20.6,14.3 35.1,14.3 12.2,0 22.3,-2.9 30.4,-8.8 7.4,-5.4 11.8,-12.5 13.3,-21.3 l 0.3,-31.4 c 9.1,-2.2 21.5,-7.2 29.3,-19 2,-2.5 1.3,-5.9 -1.3,-7.6 z"
   class="st2"
   inkscape:connector-curvature="0"
   style="fill:#191717" />
	<path
   id="path3896"
   d="m 528.7,94.1 h 76.7 c 3.4,0 6.2,-2.8 6.2,-6.2 0,-3.4 -2.8,-6.2 -6.2,-6.2 h -76.7 c -3.4,0 -6.2,2.8 -6.2,6.2 0,3.4 2.8,6.2 6.2,6.2 z"
   class="st2"
   inkscape:connector-curvature="0"
   style="fill:#191717" />
	<path
   id="path3898"
   d="m 117.8,94.1 h 76.7 c 3.4,0 6.2,-2.8 6.2,-6.2 0,-3.4 -2.8,-6.2 -6.2,-6.2 h -76.7 c -3.4,0 -6.2,2.8 -6.2,6.2 0,3.4 2.7,6.2 6.2,6.2 z"
   class="st2"
   inkscape:connector-curvature="0"
   style="fill:#191717" />
	<circle
   id="circle3900"
   r="6.1999998"
   cy="150.10001"
   cx="609.29999"
   class="st2"
   style="fill:#191717" />
	<circle
   id="circle3902"
   r="6.1999998"
   cy="130.60001"
   cx="359.79999"
   class="st2"
   style="fill:#191717" />
	<path
   id="path3904"
   d="m 244.8,150.2 c 0.1,0 0.2,0 0.3,0 23.3,0 33.7,-14.6 41.6,-28.2 2.6,-4.5 12.2,-19.5 25.8,-23.4 16.8,-4.9 34.7,2.9 41.7,18.2 1,2.2 3.2,3.5 5.4,3.6 0.1,0 0.2,0 0.3,0 0.1,0 0.2,0 0.4,0 2.2,-0.1 4.4,-1.4 5.4,-3.6 7,-15.3 24.9,-23.1 41.7,-18.2 13.6,4 23.2,18.9 25.8,23.4 7.9,13.7 18.3,28.2 41.9,28.2 0,0 0,0 0,0 14.2,0 31,-10.6 35.7,-30.9 3.9,-16.8 -3.3,-32 -19,-39.7 -3.1,-1.5 -6.8,-0.3 -8.3,2.8 -1.5,3.1 -0.3,6.8 2.8,8.3 14.9,7.4 13.6,20.5 12.4,25.8 -2.4,10.4 -11.6,21.4 -23.7,21.4 -15.5,0 -22.9,-7.8 -31.2,-22.1 -4.1,-7 -15.5,-24 -33,-29.1 -19.1,-5.6 -39.3,1.1 -50.9,15.8 C 348.3,87.8 328.1,81.1 309,86.7 c -17.5,5.1 -28.9,22.1 -33,29.1 -8.3,14.3 -15.7,22.1 -30.9,22.1 -0.1,0 -0.2,0 -0.2,0 -13.2,-0.1 -21.6,-9.3 -24,-18.4 -1.2,-4.3 -3.7,-19 13.1,-29 2.9,-1.7 3.9,-5.5 2.1,-8.5 -1.8,-2.9 -5.5,-3.9 -8.5,-2.1 -19.3,11.5 -22.3,29.7 -18.7,42.9 4.4,16.3 18.9,27.3 35.9,27.4 z"
   class="st2"
   inkscape:connector-curvature="0"
   style="fill:#191717" />
	<polygon
   id="polygon3906"
   points="360.1,734 360,734 360.1,734 "
   class="st2"
   style="fill:#191717" />
	<circle
   id="circle3908"
   r="6.1999998"
   cy="150.10001"
   cx="108.1"
   class="st2"
   style="fill:#191717" />
	<circle
   id="circle3910"
   r="6.1999998"
   cy="88"
   cx="90.699997"
   class="st2"
   style="fill:#191717" />
	<circle
   id="circle3912"
   r="6.1999998"
   cy="88"
   cx="631.29999"
   class="st2"
   style="fill:#191717" />
	<circle
   id="circle3914"
   r="6.1999998"
   cy="485.29999"
   cx="664.5"
   class="st2"
   style="fill:#191717" />
	<circle
   id="circle3916"
   r="6.1999998"
   cy="627.09998"
   cx="639.59998"
   class="st2"
   style="fill:#191717" />
	<circle
   id="circle3918"
   r="6.1999998"
   cy="644.79999"
   cx="599.79999"
   class="st2"
   style="fill:#191717" />
	<path
   id="path3920"
   d="m 231.9,111.2 c 0,9.2 7.5,16.7 16.7,16.7 9.2,0 16.7,-7.5 16.7,-16.7 0,-9.2 -7.5,-16.7 -16.7,-16.7 -9.2,-0.1 -16.7,7.4 -16.7,16.7 z m 16.7,-4.4 c 2.4,0 4.4,2 4.4,4.4 0,2.4 -2,4.4 -4.4,4.4 -2.4,0 -4.4,-2 -4.4,-4.4 0,-2.4 2,-4.4 4.4,-4.4 z"
   class="st2"
   inkscape:connector-curvature="0"
   style="fill:#191717" />
	<path
   id="path3922"
   d="m 473.6,127.9 c 9.2,0 16.7,-7.5 16.7,-16.7 0,-9.2 -7.5,-16.7 -16.7,-16.7 -9.2,0 -16.7,7.5 -16.7,16.7 0,9.2 7.5,16.7 16.7,16.7 z m 0,-21.1 c 2.4,0 4.4,2 4.4,4.4 0,2.4 -2,4.4 -4.4,4.4 -2.4,0 -4.4,-2 -4.4,-4.4 0,-2.4 2,-4.4 4.4,-4.4 z"
   class="st2"
   inkscape:connector-curvature="0"
   style="fill:#191717" />
	<path
   id="path3924"
   d="m 376.7,121.6 c -3.2,1.2 -4.8,4.7 -3.6,7.9 1.2,3.2 4.7,4.8 7.9,3.7 1,-0.4 25,-8.4 43.4,20.2 1.2,1.8 3.2,2.8 5.2,2.8 1.1,0 2.3,-0.3 3.3,-1 2.9,-1.8 3.7,-5.7 1.9,-8.5 -19.2,-29.7 -46.4,-29.4 -58.1,-25.1 z"
   class="st2"
   inkscape:connector-curvature="0"
   style="fill:#191717" />
	<path
   id="path3926"
   d="m 343.3,121.6 c -0.9,-0.3 -9.1,-3.2 -20.3,-1.5 -10.4,1.5 -25.3,7.4 -37.7,26.7 -1.8,2.9 -1,6.7 1.9,8.5 1,0.7 2.2,1 3.3,1 2,0 4,-1 5.2,-2.8 18.3,-28.6 42.3,-20.6 43.4,-20.2 3.2,1.2 6.7,-0.5 7.9,-3.7 1.2,-3.2 -0.5,-6.8 -3.7,-8 z"
   class="st2"
   inkscape:connector-curvature="0"
   style="fill:#191717" />
	<path
   id="path3928"
   d="m 627.8,138.5 30.1,-34.2 v 49.3 c 0,3.4 2.8,6.2 6.2,6.2 3.4,0 6.2,-2.8 6.2,-6.2 V 88 c 0,-2.6 -1.6,-4.9 -4,-5.8 -2.4,-0.9 -5.1,-0.2 -6.8,1.7 l -40.9,46.5 c -2.3,2.6 -2,6.5 0.6,8.7 2.4,2.3 6.3,2 8.6,-0.6 z"
   class="st2"
   inkscape:connector-curvature="0"
   style="fill:#191717" />
	<path
   id="path3930"
   d="m 56.8,159.9 c 3.4,0 6.2,-2.8 6.2,-6.2 v -49.3 l 30.1,34.2 c 2.3,2.6 6.2,2.8 8.7,0.6 2.6,-2.3 2.8,-6.2 0.6,-8.7 L 61.5,83.9 c -1.7,-1.9 -4.4,-2.6 -6.8,-1.7 -2.4,0.9 -4,3.2 -4,5.8 v 65.7 c 0,3.4 2.7,6.2 6.1,6.2 z"
   class="st2"
   inkscape:connector-curvature="0"
   style="fill:#191717" />
	<path
   id="path3932"
   d="m 493.4,166 c -2.9,-0.2 -5.6,1.8 -6.3,4.6 -0.7,2.9 0.7,5.9 3.3,7.1 9.8,4.6 18.7,6.4 26.7,6.4 15.3,0 27.5,-6.7 36,-13.7 13.6,-11.2 20.6,-25.3 20.9,-25.9 1.4,-2.9 0.4,-6.4 -2.4,-8 -6.3,-3.7 -17.2,-6 -33.8,4.1 -8.3,5.1 -14.7,11.2 -15.8,12.3 -15.2,13.4 -27.9,13.1 -28.6,13.1 z m 36.9,-3.9 c 0.1,-0.1 0.2,-0.2 0.3,-0.3 4.7,-4.7 18,-15.6 28.4,-16.1 -3,4.3 -7.5,10.1 -13.6,15.2 -9,7.4 -18.6,11 -28.8,10.8 4.2,-2.2 8.9,-5.4 13.7,-9.6 z"
   class="st2"
   inkscape:connector-curvature="0"
   style="fill:#191717" />
	<path
   id="path3934"
   d="m 151.4,136.5 c -2.8,1.6 -3.8,5.1 -2.4,8 0.3,0.6 7.3,14.7 20.9,25.9 8.5,7 20.6,13.7 36,13.7 8.1,0 17,-1.8 26.7,-6.4 2.7,-1.3 4,-4.2 3.3,-7.1 -0.7,-2.9 -3.3,-4.8 -6.3,-4.7 -0.5,0 -13.3,0.4 -28.5,-13 -1.1,-1.1 -7.5,-7.2 -15.8,-12.3 -16.6,-10 -27.6,-7.7 -33.9,-4.1 z m 41.4,25.6 c 4.7,4.2 9.4,7.3 13.7,9.6 -21.6,0.2 -35.9,-16.3 -42.4,-26 10.4,0.5 23.7,11.4 28.4,16.1 0.1,0.1 0.2,0.2 0.3,0.3 z"
   class="st2"
   inkscape:connector-curvature="0"
   style="fill:#191717" />
	<path
   id="path3936"
   d="m 671.8,664.6 c -6.2,-5.2 -13,-8.2 -19.3,-9.9 2.4,-1.8 4.7,-3.9 6.7,-6.2 15.3,-18 15.4,-44.5 0.2,-61.7 -2.3,-2.6 -6.2,-2.8 -8.7,-0.5 -2.6,2.3 -2.8,6.2 -0.5,8.7 11.1,12.6 10.9,32.1 -0.4,45.5 -9.2,10.8 -26.7,13.4 -31.9,14 -15.7,1.7 -33.3,5.3 -42.8,26.8 -1.5,3.3 -2.4,7 -2.6,11 -2.2,-0.7 -4.6,-1.1 -7,-1.1 -12.5,0 -22.7,10.2 -22.7,22.7 0,8.6 4.8,16.1 11.9,19.9 -2.1,1.9 -4.1,4 -5.9,6.4 -21,-28.3 -54.6,-46.1 -91.6,-46.1 -5.3,0 -10.6,0.4 -15.7,1.1 30.4,-9.3 58.7,-23.8 84.5,-43 v 0 c 33.3,-24.9 61,-57.4 80,-93.9 20,-38.4 30.1,-79.9 30.1,-123.1 0,-0.3 0,-0.5 0,-0.8 0,-0.1 0,-0.1 0,-0.2 0,-0.1 0,-0.2 0,-0.3 -0.2,-35.1 -8,-66.7 -19.1,-93.9 4.1,0.8 8,1.1 11.5,1.1 25.9,0 37.3,-17.8 38.5,-19.9 v 0 c 5.6,-9.4 6.5,-20.8 3.3,-31.1 0.1,-0.3 0.1,-0.7 0.1,-1.1 V 176.3 c 0,-3.4 -2.8,-6.2 -6.2,-6.2 -3.4,0 -6.2,2.8 -6.2,6.2 V 271 c -10.5,-9.1 -25.7,-10.1 -32,-10.1 -12.2,0.1 -19.8,-1.8 -25.4,-11.4 -4.7,-8.1 -2,-16.5 2.7,-21.3 5.9,-6 14.3,-6.8 22.5,-2.3 3,1.6 6.8,0.6 8.4,-2.4 1.6,-3 0.6,-6.8 -2.4,-8.4 -13,-7.2 -27.6,-5.4 -37.3,4.4 -9.6,9.8 -11.4,24.3 -4.6,36.1 8.9,15.3 22.4,17.5 35.7,17.5 0.2,0 0.3,0 0.5,0 4,0 16.9,0.6 24.3,7.6 9.6,9.1 12.1,23.4 5.8,34 0,0 -0.1,0.1 -0.1,0.2 -0.5,0.9 -12.4,21.1 -45.6,10.5 -10,-21.2 -21.6,-39.2 -32.4,-53.6 l -4.9,3.7 4.9,-3.8 -2,-2.6 c -21.3,-35.7 3.3,-73.7 16.1,-89.8 l 7.2,-8.2 c 0,0 0,0 0,0 0,0 0,0 0,0 v 0 c 2.2,-2.6 2,-6.5 -0.6,-8.7 -2.5,-2.1 -6.1,-2 -8.4,0.3 v 0 c -0.2,0.2 -1.3,1.3 -3,3.2 -11.1,11.3 -54.5,51.3 -96.6,30.4 l -1.2,-0.8 -0.6,-0.4 c -37.7,-20.3 -74.9,-32 -110.4,-35 -4.6,-10.5 -10.7,-18.5 -18.4,-18.5 -7.8,0 -13.9,8.1 -18.6,18.8 -49.7,2.2 -111.5,34.3 -114.1,35.6 -42.3,21.3 -85.9,-18.9 -97,-30.2 -1.7,-1.9 -2.9,-3 -3,-3.2 v 0 c -2.3,-2.3 -5.9,-2.4 -8.4,-0.3 -2.6,2.2 -2.8,6.1 -0.6,8.7 v 0 c 0,0 0,0 0,0 0,0 0,0 0,0 l 7.7,8.7 c 4.5,5.6 10.2,13.7 15,23.4 12,24.3 12.2,46.4 0.7,65.8 -14.3,17.8 -25.9,36.5 -34.8,56.2 -33.5,10.9 -45.5,-9.5 -46,-10.4 0,-0.1 -0.1,-0.1 -0.1,-0.2 -6.3,-10.6 -3.8,-24.9 5.8,-34 7.4,-7 20.3,-7.6 24.3,-7.6 0,0 0.1,0 0.1,0 13.4,0 27.2,-2.1 36.1,-17.5 6.8,-11.8 5,-26.4 -4.6,-36.1 -9.7,-9.9 -24.3,-11.6 -37.3,-4.4 -3,1.6 -4.1,5.4 -2.4,8.4 1.6,3 5.4,4.1 8.4,2.4 8.3,-4.5 16.7,-3.7 22.5,2.3 4.7,4.8 7.3,13.2 2.7,21.3 -5.5,9.5 -13,11.4 -25,11.4 -0.1,0 -0.2,0 -0.4,0 -5.5,0 -18.3,0.8 -28.5,7.4 v -90.3 c 0,-3.4 -2.8,-6.2 -6.2,-6.2 -3.4,0 -6.2,2.8 -6.2,6.2 v 104 c -6.8,12.2 -7.2,27.1 -0.2,39.1 0.7,1.3 5,8.5 14.6,13.9 5.5,3.1 13.4,6 23.9,6 3.8,0 8,-0.4 12.5,-1.3 -10.8,29 -16.2,60.2 -16.4,94.2 0,0.1 0,0.1 0,0.2 0,0 0,0.1 0,0.1 0,0.3 0,0.6 0,0.8 0,61.4 21.6,121.7 60.8,169.8 34.7,42.6 81.9,74.2 134.2,90.3 -5.5,-0.8 -11.1,-1.2 -16.7,-1.2 -36.7,0 -70,17.5 -91,45.4 -1.7,-2.2 -3.6,-4.3 -5.7,-6.1 6.6,-4 11.1,-11.2 11.1,-19.5 0,-12.5 -10.2,-22.7 -22.7,-22.7 -2.3,0 -4.5,0.4 -6.6,1 -0.3,-3.9 -1.2,-7.6 -2.6,-10.9 -9.6,-21.5 -27.1,-25.1 -42.8,-26.8 C 97.5,653.5 80,650.9 70.8,640.1 59.2,627 59,607.5 70.1,594.9 c 2.3,-2.6 2,-6.5 -0.5,-8.7 -2.6,-2.3 -6.5,-2 -8.7,0.5 -15.1,17.2 -15,43.7 0.2,61.7 2,2.4 4.3,4.4 6.7,6.2 -6.3,1.7 -13.1,4.8 -19.3,9.9 -14.7,12.1 -22.2,32.3 -22.4,59.8 -0.5,2.5 0.6,5.1 2.8,6.5 1,0.6 2.1,0.9 3.2,0.9 0.4,0 0.9,-0.1 1.3,-0.2 0,0 0.1,0 0.1,0 0.2,0 0.3,-0.1 0.5,-0.2 0.3,-0.1 0.7,-0.2 1,-0.4 0.1,0 0.1,-0.1 0.2,-0.1 1,-0.6 1.9,-1.4 2.5,-2.4 2.4,-3.1 12.3,-7 20.5,-8.7 32.1,-7 38.8,-28.7 37.8,-39.1 -0.3,-3.4 -3.3,-5.9 -6.7,-5.6 -3.4,0.3 -5.9,3.3 -5.6,6.7 0,0.1 0.1,1.9 -0.5,4.6 -1.5,6.2 -7,16.9 -27.6,21.4 -0.1,0 -0.1,0 -0.2,0 -2.4,0.5 -9.6,2.2 -16.3,5.3 1.8,-17.8 7.5,-30.8 17.2,-38.9 14.9,-12.4 34.6,-8.9 34.8,-8.8 0.7,0.1 1.3,0.1 1.9,0 3.3,0.7 6.1,1.1 8.2,1.3 16.5,1.8 26.6,5.4 32.9,19.5 4.9,11.1 -1.4,23.9 -9.9,30.3 -4.3,3.3 -15.8,9.8 -28.7,-0.8 -2.6,-2.2 -6.5,-1.8 -8.7,0.8 -2.2,2.6 -1.8,6.5 0.8,8.7 5.8,4.8 12.3,7.6 19,8.4 -8.6,7 -14.4,15.8 -17,20.4 -8.4,14.5 -15.2,22.3 -26.5,22.4 V 733 c 0,-3.4 -2.8,-6.2 -6.2,-6.2 -3.4,0 -6.2,2.8 -6.2,6.2 v 50.2 c 0,2.5 1.5,4.6 3.6,5.6 1.1,0.8 2.4,1.4 3.8,1.4 h 144 c 2.2,0 4,-1.1 5.2,-2.8 0.8,-0.8 1.5,-1.8 1.8,-3 5.7,-22.1 25.6,-37.5 48.4,-37.5 20.4,0 38.5,12.4 46.2,30.9 h -13.2 c -5.4,-13.3 -18.4,-22.2 -33.1,-22.2 -16.1,0 -30.3,10.9 -34.6,26.4 -0.9,3.3 1.1,6.7 4.3,7.6 3.3,0.9 6.7,-1.1 7.6,-4.3 2.8,-10.2 12.1,-17.3 22.6,-17.3 7.8,0 14.8,3.8 19.1,9.8 h -3.6 c -3.4,0 -6.2,2.8 -6.2,6.2 0,3.4 2.8,6.2 6.2,6.2 h 12.5 c 0.2,0 0.5,0.1 0.7,0.1 0.3,0 0.6,0 0.8,-0.1 h 24.8 c 3.4,0 6.2,-2.8 6.2,-6.2 0,-0.3 0,-0.6 -0.1,-0.9 0.1,-0.8 0.1,-1.7 -0.1,-2.6 -7.3,-27.1 -32.1,-46 -60.2,-46 -27.2,0 -51.1,17.6 -59.4,43.3 h -32.3 c 2.6,-8.3 6.1,-16 10.5,-23.2 0.3,-0.4 0.5,-0.8 0.8,-1.2 18.3,-28.7 50.3,-47.1 85.8,-47.1 21,0 41.2,6.4 58.3,18.4 0.5,0.3 1,0.6 1.5,0.7 2.6,3.1 5.2,6.4 7.7,9.8 0.6,0.8 1.1,1.6 1.7,2.4 -0.6,12.7 6.3,26 20.6,39.6 0.5,1.5 1,2.8 1.3,3.8 v 1.3 c 0,3.4 2.8,6.2 6.2,6.2 2.9,0 5.2,-1.9 5.9,-4.6 v 0 c 0,-0.1 0.9,-3.1 2.7,-8.1 12.9,-12.6 19.3,-24.9 19.2,-36.8 0.8,-1.2 1.7,-2.5 2.6,-3.7 2.8,-3.8 5.7,-7.5 8.7,-11 17,-11.8 36.9,-18 57.7,-18 44.8,0 84,29.2 97,71.5 h -32.3 c -8.2,-25.7 -32.1,-43.3 -59.4,-43.3 -28.1,0 -52.8,18.9 -60.2,46 -0.3,1 -0.3,2 0,3 0,0.2 0,0.3 0,0.5 0,3.4 2.8,6.2 6.2,6.2 h 54.2 c 3.4,0 6.2,-2.8 6.2,-6.2 0,-3.4 -2.8,-6.2 -6.2,-6.2 h -19.7 c 4.3,-6 11.3,-9.8 19.1,-9.8 10.7,0 20,7.2 22.7,17.6 0.7,2.8 3.2,4.6 6,4.6 0.5,0 1,-0.1 1.5,-0.2 3.3,-0.8 5.3,-4.2 4.5,-7.5 -4.1,-15.8 -18.3,-26.9 -34.7,-26.9 -14.6,0 -27.6,8.9 -33.1,22.2 h -12.5 c 7.6,-18.5 25.8,-30.9 46.2,-30.9 22.8,0 42.7,15.4 48.4,37.5 0.1,0.5 0.4,1 0.6,1.5 0.8,2.5 3.1,4.3 5.9,4.3 H 664 c 3.4,0 6.2,-2.8 6.2,-6.2 0,-0.1 0,-0.3 0,-0.4 0,-0.1 0,-0.3 0,-0.4 V 782 c 0.1,-0.6 0.1,-1.2 0.1,-1.8 0,-0.1 0,-0.2 -0.1,-0.3 V 733 c 0,-3.4 -2.8,-6.2 -6.2,-6.2 -3.4,0 -6.2,2.8 -6.2,6.2 v 42 c -10.4,-0.8 -16.9,-8.5 -24.9,-22.3 -2.6,-4.4 -8,-12.7 -16,-19.5 5.5,-1.2 10.8,-3.8 15.7,-7.9 2.6,-2.2 3,-6.1 0.8,-8.7 -2.2,-2.6 -6.1,-3 -8.7,-0.8 -12.8,10.6 -24.3,4.1 -28.7,0.8 -8.5,-6.4 -14.8,-19.3 -9.9,-30.3 6.3,-14.1 16.4,-17.8 32.9,-19.5 2.1,-0.2 4.9,-0.6 8.2,-1.3 0.6,0.1 1.3,0.1 2,0 0.2,0 19.7,-3.6 34.7,8.8 9.8,8.1 15.6,21.1 17.3,39 -6.8,-3.2 -14.1,-4.9 -16.4,-5.4 -0.1,0 -0.1,0 -0.2,0 -20.5,-4.5 -26.1,-15.1 -27.6,-21.3 -0.6,-2.6 -0.6,-4.4 -0.5,-4.6 0.3,-3.4 -2.2,-6.4 -5.6,-6.7 -3.4,-0.3 -6.4,2.2 -6.7,5.6 -1,10.5 5.7,32.1 37.9,39.1 8.3,1.8 18.8,5.9 20.7,9 0,0 0,0.1 0.1,0.1 0.3,0.4 0.6,0.8 0.9,1.1 0.1,0.1 0.2,0.1 0.3,0.2 0.3,0.2 0.6,0.5 0.9,0.6 0.1,0.1 0.3,0.2 0.4,0.2 0.3,0.2 0.6,0.3 0.9,0.4 0.1,0 0.3,0.1 0.4,0.1 0.4,0.1 0.9,0.2 1.4,0.2 0,0 0,0 0,0 0.4,0 0.7,0 1.1,-0.1 0.1,0 0.2,0 0.3,-0.1 0.3,-0.1 0.6,-0.2 1,-0.3 0,0 0.1,0 0.1,0 0.3,-0.1 0.5,-0.3 0.8,-0.4 0,0 0.1,-0.1 0.1,-0.1 0.2,-0.1 0.4,-0.3 0.5,-0.4 0.1,-0.1 0.3,-0.2 0.4,-0.4 0.1,-0.1 0.3,-0.3 0.4,-0.4 0.1,-0.2 0.3,-0.3 0.4,-0.5 0.1,-0.2 0.2,-0.3 0.3,-0.5 0.1,-0.2 0.2,-0.3 0.3,-0.5 0.1,-0.2 0.1,-0.4 0.2,-0.6 0.1,-0.2 0.1,-0.4 0.2,-0.6 0,-0.2 0.1,-0.4 0.1,-0.5 0,-0.2 0.1,-0.4 0.1,-0.7 0,0 0,-0.1 0,-0.1 -0.1,-28.3 -7.7,-48.8 -22.6,-61.1 z M 152.9,777.7 H 87.8 c 5.5,-5.6 9.4,-12.3 12.4,-17.5 2.6,-4.5 12.2,-19.5 25.8,-23.4 16,-4.7 31,0.8 38.4,13.5 -4.9,8.5 -8.8,17.7 -11.5,27.4 z m 1.7,-53.7 c -5.7,0 -10.3,-4.6 -10.3,-10.3 0,-5.7 4.6,-10.3 10.3,-10.3 5.7,0 10.3,4.6 10.3,10.3 0,5.7 -4.7,10.3 -10.3,10.3 z m 366.6,-78.1 v 0 l 0.9,1.1 z m 0.2,-6.2 C 463,632.9 420.8,658 395.6,680.2 c -10.9,9.6 -19.5,19.5 -26,27.9 -1.2,-0.8 -2.3,-1.6 -3.3,-2.1 v -17.6 c 47.3,-47.5 94.3,-61.7 125.5,-65.2 20.7,-2.3 37.4,-0.4 47.4,1.5 -5.7,5.3 -11.6,10.3 -17.8,15 z m 73.3,-87.2 c -6,11.5 -12.9,22.5 -20.5,33.1 -7.9,-2.5 -17.8,-4.8 -29.7,-5.9 26.5,-33.6 43.3,-73.7 48.7,-116 8.6,-1 20.5,-4.7 29.6,-10.6 -2.4,34.7 -11.8,68.1 -28.1,99.4 z m -42.1,-111.6 7.2,-0.3 c 2.4,10.7 10.5,19.3 21.1,22.2 -5.6,42.8 -23.4,83.2 -51.8,116.2 -13.7,0 -29.6,1.6 -47.6,5.5 42,-34.2 69.4,-85.7 71.1,-143.6 z m -117.5,158 c -4,1.6 -6.8,2.9 -8.2,3.5 -16.6,6.6 -34.4,10.9 -53,12.3 L 539.8,448.8 c -5,66.8 -46.6,123.4 -104.7,150.1 z M 623.4,434.2 c -0.2,5.6 -15.5,14.7 -29,16.9 -1.9,0.3 -3.8,0.5 -5.6,0.5 -2.4,0 -4.7,-0.5 -6.8,-1.4 -6.3,-2.7 -10.7,-8.9 -10.7,-16.1 0,-7.2 4.4,-13.4 10.7,-16.1 2.1,-0.9 4.4,-1.4 6.8,-1.4 1.8,0 3.7,0.2 5.6,0.5 13.5,2.2 28.7,11.3 29,16.8 0,0.1 0,0.2 0,0.3 z M 565.5,276 l 2.6,3.5 v 0 c 22.7,30.3 49.3,77.2 54.4,135.6 -9,-5.8 -20.8,-9.5 -29.3,-10.5 C 586.8,354 564.3,308.3 531,273 c 1.4,-2.9 2.2,-6.2 2.2,-9.6 0,-4.6 -1.4,-8.9 -3.7,-12.4 l 28.4,-32.4 c -5.4,20.6 -2.8,40.1 7.6,57.4 z m -82.9,-70.1 1.3,0.9 0.7,0.4 c 9.9,5 20.5,7.5 31.5,7.5 11.6,0 23.7,-2.8 35.9,-8.4 l -32,36.5 c -2.9,-1.4 -6.1,-2.1 -9.6,-2.1 -4.5,0 -8.6,1.3 -12.1,3.5 -31.5,-23 -68.8,-38.3 -109.4,-43.3 -1,-7.3 -3,-17.7 -6,-27.9 32.1,3.6 65.6,14.6 99.7,32.9 z m 38.2,57.5 c 0,4.5 -3,8.4 -7.1,9.8 -1,0.3 -2.1,0.5 -3.2,0.5 -0.3,0 -0.7,0 -1,0 -4.6,-0.4 -8.3,-3.9 -9.1,-8.3 -0.1,-0.6 -0.2,-1.3 -0.2,-1.9 0,-0.7 0.1,-1.3 0.2,-2 0.9,-4.5 4.7,-8 9.4,-8.3 0.2,0 0.5,0 0.7,0 0.2,0 0.4,0 0.6,0 4.6,0.3 8.5,3.6 9.5,8 0.1,0.6 0.2,1.1 0.2,1.7 -0.1,0.1 0,0.3 0,0.5 z M 389.4,213.5 c 37.2,4.9 71.6,19.1 100.7,40.1 -1.5,3 -2.3,6.3 -2.3,9.9 0,4.5 1.3,8.6 3.6,12.2 l -49.8,56.8 c -2.3,2.6 -2,6.5 0.6,8.7 1.2,1 2.6,1.5 4.1,1.5 1.7,0 3.4,-0.7 4.7,-2.1 l 49.7,-56.7 c 3,1.5 6.3,2.3 9.9,2.3 4.6,0 8.8,-1.4 12.3,-3.7 31,33.2 51.9,75.8 58.1,123 -10.7,3 -19,11.8 -21.2,22.8 l -7.1,0.3 c -1.5,-45.7 -19.2,-89.3 -50.1,-123.2 -2.3,-2.5 -6.2,-2.7 -8.7,-0.4 -2.5,2.3 -2.7,6.2 -0.4,8.7 27.2,29.8 43.4,67.6 46.5,107.6 L 473.5,355 c -2.4,-2.4 -6.3,-2.4 -8.7,0 -2.4,2.4 -2.4,6.3 0,8.7 l 71.4,71.4 -176,176 -176,-176 70.8,-70.8 c 2.4,-2.4 2.4,-6.3 0,-8.7 -2.4,-2.4 -6.3,-2.4 -8.7,0 l -65.7,65.7 c 3.5,-45.5 23.9,-86.4 55,-116.2 l 31,35.4 c 1.2,1.4 2.9,2.1 4.7,2.1 1.4,0 2.9,-0.5 4.1,-1.5 2.6,-2.3 2.8,-6.2 0.6,-8.7 l -31.1,-35.5 c 28,-23.4 63.1,-38.5 101.6,-41.4 l -52.8,52.3 c -2.4,2.4 -2.4,6.3 0,8.7 1.2,1.2 2.8,1.8 4.4,1.8 1.6,0 3.1,-0.6 4.4,-1.8 l 58,-57.4 56.3,56.3 c 2.4,2.4 6.3,2.4 8.7,0 2.4,-2.4 2.4,-6.3 0,-8.7 l -51.2,-51.2 c 31.7,2.4 61.9,13 88.2,31.1 2.8,1.9 6.7,1.2 8.6,-1.6 1.9,-2.8 1.2,-6.7 -1.6,-8.6 -30.4,-20.9 -65.8,-32.5 -102.8,-33.6 v -4.4 c 11.6,-2.8 20.9,-12.7 22.7,-24.9 z m -180.7,74.3 c 3.5,0 6.8,-0.8 9.7,-2.2 l 8.9,10.2 c -35.3,33.7 -57.8,80.6 -59.6,132.7 l -5,-0.3 c -2.4,-11.7 -11.5,-20.9 -23.2,-23.3 6.1,-46.3 26.5,-88.1 56.5,-120.9 3.7,2.4 8,3.8 12.7,3.8 z m -10.3,-22.6 c 0,-0.5 0,-0.9 0.1,-1.4 0,-0.3 0.1,-0.5 0.1,-0.8 0.9,-4.4 4.7,-7.8 9.3,-8.1 0.2,0 0.4,0 0.5,0 0.1,0 0.1,0 0.2,0 4.7,0 8.7,3.2 9.9,7.6 0.2,0.9 0.4,1.8 0.4,2.7 0,0.7 -0.1,1.4 -0.2,2.1 -0.9,4.4 -4.7,7.8 -9.3,8.1 -0.3,0 -0.5,0 -0.8,0 -1.3,0 -2.6,-0.3 -3.7,-0.7 -3.7,-1.4 -6.5,-5.2 -6.5,-9.5 z m -35.8,175.4 5.1,0.3 c 1.7,58 29.2,109.6 71.3,143.8 -18.1,-4 -34,-5.6 -47.8,-5.7 C 163,546.1 145.1,505.9 139.5,463.3 151,460.9 160.1,452 162.6,440.6 Z m 17.9,8.2 165.9,165.9 C 258,608 187.2,537.2 180.5,448.8 Z m 162.7,-249 c 2.7,-18.7 11.9,-43.7 16.7,-45.7 5.5,2.1 14,28 16.6,45.6 0.5,3.5 0.8,6.7 0.8,9.3 0,1.1 -0.1,2.1 -0.3,3.1 -1.5,8.1 -8.6,14.3 -17.2,14.3 -8.6,0 -15.7,-6.2 -17.2,-14.3 -0.2,-1 -0.3,-2.1 -0.3,-3.1 0.1,-2.7 0.4,-5.8 0.9,-9.2 z m 10.8,38.5 v 4.3 c -44.6,1.4 -85.4,18.1 -117.4,44.9 l -8.8,-10.1 c 2.3,-3.5 3.7,-7.8 3.7,-12.3 0,-3.8 -1,-7.4 -2.6,-10.5 29.3,-21.5 64,-36 101.7,-41.1 1.7,12.4 11.2,22.4 23.4,24.8 z M 201.3,214.7 c 11,0 21.6,-2.5 31.6,-7.5 0.6,-0.3 57.7,-30 103.9,-34 -3,10.1 -5,20.6 -6,27.8 -41.1,5.1 -79,21 -110.7,44.6 -3.4,-2 -7.2,-3.1 -11.4,-3.1 -3.5,0 -6.8,0.8 -9.7,2.2 l -33.6,-38.3 c 12.3,5.5 24.3,8.3 35.9,8.3 z m -49.9,61.9 0.5,-0.7 c 10.4,-17.2 13,-36.8 7.8,-57.4 l 30,34.3 c -2.3,3.5 -3.7,7.8 -3.7,12.3 0,3.3 0.7,6.4 2,9.3 -32.7,35.2 -54.7,80.4 -61,130.4 -8.9,1.4 -20.7,5.2 -29.6,10.9 3.5,-52.8 21.2,-98.5 54,-139.1 z M 96.9,434 c 0.2,-5.8 16.3,-13.8 29,-16.4 2.8,-0.6 5.4,-0.9 7.6,-0.9 1.7,0 3.2,0.2 4.8,0.7 7.3,2.1 12.7,8.8 12.7,16.8 0,8 -5.4,14.7 -12.7,16.8 -1.5,0.4 -3.1,0.7 -4.8,0.7 -2.3,0 -4.9,-0.3 -7.6,-0.9 -12.7,-2.7 -28.8,-10.7 -29,-16.5 0,-0.2 0,-0.2 0,-0.3 z m 0.6,18.4 c 8.9,5.8 20.8,9.6 29.6,11 5.3,42.4 22.1,82.6 48.7,116.2 -11.9,1.1 -21.8,3.3 -29.8,5.8 C 117.3,546 100.7,500.5 97.5,452.4 Z M 154.9,597 c -0.3,-0.4 -0.6,-0.7 -0.9,-1.1 30.1,-8.3 63,-3.9 86.1,1.6 27.9,6.7 48.3,16.4 48.5,16.5 l 0.1,-0.2 c 22.1,8.8 46.2,13.7 71.4,13.7 25.1,0 49.1,-4.8 71.1,-13.6 v 0 c 0,0 0.2,-0.1 0.6,-0.3 2.6,-1.1 5.3,-2.2 7.8,-3.4 8.5,-3.5 22.8,-8.7 40,-12.8 23.3,-5.6 56.3,-10 86.4,-1.6 -5.2,6.4 -10.6,12.5 -16.4,18.4 -8.4,-2.3 -29.8,-6.7 -58.7,-3.6 -31.4,3.4 -77.6,16.8 -124.8,60.4 v -10.9 c 0,-3.4 -2.8,-6.2 -6.2,-6.2 -3.4,0 -6.2,2.8 -6.2,6.2 v 10.3 C 306.8,627.3 260.8,614 229.6,610.6 200,607.4 178.3,612.2 170.4,614.4 165.2,609 159.9,603.1 154.9,597 Z m 26.3,27.8 c 10,-2 26.9,-4 48,-1.6 55.5,6.2 98.1,37.9 124.8,64.5 v 18.1 c -0.9,0.5 -1.9,1.1 -3,1.9 -6.5,-8.3 -15,-18 -25.7,-27.4 C 300.1,658 257.7,632.8 199.1,639.8 v 0.1 c -6.2,-4.8 -12.2,-9.8 -17.9,-15.1 z m 155.3,98 C 324.8,707.8 312,696.5 299.2,688 l 0.1,-0.3 c -0.3,-0.1 -0.6,-0.2 -0.9,-0.2 -21.3,-13.9 -42.7,-20 -59.9,-22.5 -8.1,-4.2 -16.1,-8.9 -23.8,-14 37.7,-1.1 71.9,11.7 102.1,38.2 10.4,9.1 18.6,18.5 24.8,26.6 -1.9,2.1 -3.6,4.4 -5.1,7 z m 29.9,37.5 c -1.5,1.8 -3.1,3.6 -4.9,5.4 -0.4,0.4 -0.9,0.9 -1.4,1.3 0,0 -0.1,0.1 -0.1,0.1 0,0 -0.1,0.1 -0.1,0.1 V 767 c -0.2,-0.2 -0.5,-0.4 -0.7,-0.7 -2,-1.9 -3.7,-3.8 -5.3,-5.7 -7.3,-8.7 -10.5,-16.8 -9.4,-24.2 0.1,-0.6 0.2,-1.2 0.4,-1.8 0.8,-3.2 2.3,-6 4.1,-8.4 1.5,-2 3.2,-3.7 4.9,-5.2 1.5,-1.3 3,-2.4 4.3,-3.3 0.6,-0.4 1.1,-0.7 1.6,-1 0,0 0.1,0 0.1,-0.1 0,0 0.1,0 0.1,0 0.7,0.4 1.4,0.9 2.3,1.5 1.2,0.8 2.6,1.9 4,3.1 1.8,1.6 3.6,3.5 5.1,5.6 1.8,2.6 3.3,5.5 3.9,8.8 0,0.2 0.1,0.5 0.2,0.7 1.1,7.3 -2,15.3 -9.1,24 z m 24.4,-45.1 c -0.2,0.2 -0.4,0.4 -0.5,0.6 -2.3,2.6 -4.4,5.2 -6.3,7.7 -1.5,-2.6 -3.2,-5 -5,-7.1 6.2,-8.1 14.6,-17.8 25.2,-27.1 30,-26.4 64.1,-39.2 101.5,-38.3 -7.8,5.1 -15.8,9.9 -24,14.1 -42.8,6.5 -72.1,28.7 -90.9,50.1 z m 174.5,-11.8 c 5.7,0 10.3,4.6 10.3,10.3 0,5.7 -4.6,10.3 -10.3,10.3 -5.7,0 -10.3,-4.6 -10.3,-10.3 0,-5.6 4.6,-10.3 10.3,-10.3 z m 31.2,32.1 c 13.6,4 23.2,18.9 25.8,23.4 3.2,5.6 7.5,13 13.8,18.8 H 567 c -2.6,-9.4 -6.3,-18.3 -11,-26.5 7.6,-13.6 24.6,-20.4 40.5,-15.7 z"
   class="st2"
   inkscape:connector-curvature="0"
   style="fill:#191717" />
	<path
   id="path3938"
   d="m 69.6,301.1 c 0,10.1 8.2,18.4 18.4,18.4 10.2,0 18.4,-8.2 18.4,-18.4 0,-10.1 -8.2,-18.4 -18.4,-18.4 -10.2,0 -18.4,8.3 -18.4,18.4 z m 24.4,0 c 0,3.3 -2.7,6 -6,6 -3.3,0 -6,-2.7 -6,-6 0,-3.3 2.7,-6 6,-6 3.3,0 6,2.7 6,6 z"
   class="st2"
   inkscape:connector-curvature="0"
   style="fill:#191717" />
	<path
   id="path3940"
   d="m 648.7,301.1 c 0,-10.1 -8.2,-18.4 -18.4,-18.4 -10.1,0 -18.4,8.2 -18.4,18.4 0,10.1 8.2,18.4 18.4,18.4 10.2,0 18.4,-8.2 18.4,-18.4 z m -24.4,0 c 0,-3.3 2.7,-6 6,-6 3.3,0 6,2.7 6,6 0,3.3 -2.7,6 -6,6 -3.3,0.1 -6,-2.6 -6,-6 z"
   class="st2"
   inkscape:connector-curvature="0"
   style="fill:#191717" />
	<path
   id="path3942"
   d="m 666.4,346.9 c -2.3,-0.9 -5,-0.4 -6.8,1.4 -8.1,8.3 -21.4,8 -21.6,8 -0.1,0 -0.2,0 -0.2,0 -3.3,0 -6,2.6 -6.2,5.9 -0.1,3.4 2.5,6.3 5.9,6.4 0.6,0 10.4,0.3 20.4,-4.3 v 100.9 c 0,3.4 2.8,6.2 6.2,6.2 3.4,0 6.2,-2.8 6.2,-6.2 V 352.6 c -0.1,-2.5 -1.6,-4.8 -3.9,-5.7 z"
   class="st2"
   inkscape:connector-curvature="0"
   style="fill:#191717" />
	<path
   id="path3944"
   d="m 55.7,471.4 c 3.4,0 6.2,-2.8 6.2,-6.2 V 364.3 c 10,4.6 19.8,4.3 20.4,4.3 3.4,-0.1 6.1,-3 5.9,-6.4 -0.1,-3.4 -3,-6.1 -6.4,-5.9 -0.1,0 -13.5,0.3 -21.6,-8 -1.8,-1.8 -4.4,-2.3 -6.8,-1.4 -2.3,0.9 -3.8,3.2 -3.8,5.7 v 112.7 c -0.1,3.4 2.7,6.1 6.1,6.1 z"
   class="st2"
   inkscape:connector-curvature="0"
   style="fill:#191717" />
	<path
   id="path3946"
   d="m 671.3,574.3 c 0,-3.4 -2.8,-6.2 -6.2,-6.2 h -40 c -3.4,0 -6.2,2.8 -6.2,6.2 0,3.4 2.8,6.2 6.2,6.2 h 40 c 3.4,0 6.2,-2.7 6.2,-6.2 z"
   class="st2"
   inkscape:connector-curvature="0"
   style="fill:#191717" />
	<path
   id="path3948"
   d="m 629.8,598 c 3.4,0 6.2,-2.8 6.2,-6.2 0,-3.4 -2.8,-6.2 -6.2,-6.2 h -15.4 c -3.4,0 -6.2,2.8 -6.2,6.2 0,3.4 2.8,6.2 6.2,6.2 z"
   class="st2"
   inkscape:connector-curvature="0"
   style="fill:#191717" />
	<path
   id="path3950"
   d="m 644.8,609.4 c 0,-3.4 -2.8,-6.2 -6.2,-6.2 h -38.2 c -3.4,0 -6.2,2.8 -6.2,6.2 0,3.4 2.8,6.2 6.2,6.2 h 38.2 c 3.4,0 6.2,-2.7 6.2,-6.2 z"
   class="st2"
   inkscape:connector-curvature="0"
   style="fill:#191717" />
	<path
   id="path3952"
   d="m 620.6,627.1 c 0,-3.4 -2.8,-6.2 -6.2,-6.2 h -29.9 c -3.4,0 -6.2,2.8 -6.2,6.2 0,3.4 2.8,6.2 6.2,6.2 h 29.9 c 3.4,0 6.2,-2.8 6.2,-6.2 z"
   class="st2"
   inkscape:connector-curvature="0"
   style="fill:#191717" />
	<path
   id="path3954"
   d="m 565.1,638.6 c -3.4,0 -6.2,2.8 -6.2,6.2 0,3.4 2.8,6.2 6.2,6.2 h 17 c 3.4,0 6.2,-2.8 6.2,-6.2 0,-3.4 -2.8,-6.2 -6.2,-6.2 z"
   class="st2"
   inkscape:connector-curvature="0"
   style="fill:#191717" />
	<path
   id="path3956"
   d="m 665.1,532.8 h -22.3 c -3.4,0 -6.2,2.8 -6.2,6.2 0,3.4 2.8,6.2 6.2,6.2 h 22.3 c 3.4,0 6.2,-2.8 6.2,-6.2 0,-3.4 -2.8,-6.2 -6.2,-6.2 z"
   class="st2"
   inkscape:connector-curvature="0"
   style="fill:#191717" />
	<path
   id="path3958"
   d="M 665.1,550.5 H 634 c -3.4,0 -6.2,2.8 -6.2,6.2 0,3.4 2.8,6.2 6.2,6.2 h 31.1 c 3.4,0 6.2,-2.8 6.2,-6.2 0,-3.4 -2.8,-6.2 -6.2,-6.2 z"
   class="st2"
   inkscape:connector-curvature="0"
   style="fill:#191717" />
	<path
   id="path3960"
   d="m 665.1,497.5 h -9.9 c -3.4,0 -6.2,2.8 -6.2,6.2 0,3.4 2.8,6.2 6.2,6.2 h 9.9 c 3.4,0 6.2,-2.8 6.2,-6.2 0,-3.4 -2.8,-6.2 -6.2,-6.2 z"
   class="st2"
   inkscape:connector-curvature="0"
   style="fill:#191717" />
	<path
   id="path3962"
   d="m 665.1,515.2 h -15.2 c -3.4,0 -6.2,2.8 -6.2,6.2 0,3.4 2.8,6.2 6.2,6.2 h 15.2 c 3.4,0 6.2,-2.8 6.2,-6.2 0,-3.4 -2.8,-6.2 -6.2,-6.2 z"
   class="st2"
   inkscape:connector-curvature="0"
   style="fill:#191717" />
	<circle
   id="circle3964"
   r="6.1999998"
   cy="485.60001"
   cx="55.5"
   class="st2"
   style="fill:#191717" />
	<circle
   id="circle3966"
   r="6.1999998"
   cy="627.29999"
   cx="80.5"
   class="st2"
   style="fill:#191717" />
	<circle
   id="circle3968"
   r="6.1999998"
   cy="645"
   cx="120.3"
   class="st2"
   style="fill:#191717" />
	<path
   id="path3970"
   d="m 54.9,580.7 h 40 c 3.4,0 6.2,-2.8 6.2,-6.2 0,-3.4 -2.8,-6.2 -6.2,-6.2 h -40 c -3.4,0 -6.2,2.8 -6.2,6.2 0,3.5 2.8,6.2 6.2,6.2 z"
   class="st2"
   inkscape:connector-curvature="0"
   style="fill:#191717" />
	<path
   id="path3972"
   d="M 105.6,585.9 H 90.2 c -3.4,0 -6.2,2.8 -6.2,6.2 0,3.4 2.8,6.2 6.2,6.2 h 15.4 c 3.4,0 6.2,-2.8 6.2,-6.2 0,-3.4 -2.8,-6.2 -6.2,-6.2 z"
   class="st2"
   inkscape:connector-curvature="0"
   style="fill:#191717" />
	<path
   id="path3974"
   d="M 119.6,603.5 H 81.4 c -3.4,0 -6.2,2.8 -6.2,6.2 0,3.4 2.8,6.2 6.2,6.2 h 38.2 c 3.4,0 6.2,-2.8 6.2,-6.2 0,-3.5 -2.8,-6.2 -6.2,-6.2 z"
   class="st2"
   inkscape:connector-curvature="0"
   style="fill:#191717" />
	<path
   id="path3976"
   d="m 135.5,621.1 h -29.9 c -3.4,0 -6.2,2.8 -6.2,6.2 0,3.4 2.8,6.2 6.2,6.2 h 29.9 c 3.4,0 6.2,-2.8 6.2,-6.2 0,-3.4 -2.8,-6.2 -6.2,-6.2 z"
   class="st2"
   inkscape:connector-curvature="0"
   style="fill:#191717" />
	<path
   id="path3978"
   d="m 131.7,645 c 0,3.4 2.8,6.2 6.2,6.2 h 17 c 3.4,0 6.2,-2.8 6.2,-6.2 0,-3.4 -2.8,-6.2 -6.2,-6.2 h -17 c -3.4,0 -6.2,2.8 -6.2,6.2 z"
   class="st2"
   inkscape:connector-curvature="0"
   style="fill:#191717" />
	<path
   id="path3980"
   d="m 54.9,545.4 h 22.3 c 3.4,0 6.2,-2.8 6.2,-6.2 0,-3.4 -2.8,-6.2 -6.2,-6.2 H 54.9 c -3.4,0 -6.2,2.8 -6.2,6.2 0,3.4 2.8,6.2 6.2,6.2 z"
   class="st2"
   inkscape:connector-curvature="0"
   style="fill:#191717" />
	<path
   id="path3982"
   d="M 54.9,563.1 H 86 c 3.4,0 6.2,-2.8 6.2,-6.2 0,-3.4 -2.8,-6.2 -6.2,-6.2 H 54.9 c -3.4,0 -6.2,2.8 -6.2,6.2 0,3.4 2.8,6.2 6.2,6.2 z"
   class="st2"
   inkscape:connector-curvature="0"
   style="fill:#191717" />
	<path
   id="path3984"
   d="m 54.9,510.1 h 9.9 c 3.4,0 6.2,-2.8 6.2,-6.2 0,-3.4 -2.8,-6.2 -6.2,-6.2 h -9.9 c -3.4,0 -6.2,2.8 -6.2,6.2 0,3.4 2.8,6.2 6.2,6.2 z"
   class="st2"
   inkscape:connector-curvature="0"
   style="fill:#191717" />
	<path
   id="path3986"
   d="m 54.9,527.7 h 15.2 c 3.4,0 6.2,-2.8 6.2,-6.2 0,-3.4 -2.8,-6.2 -6.2,-6.2 H 54.9 c -3.4,0 -6.2,2.8 -6.2,6.2 0,3.5 2.8,6.2 6.2,6.2 z"
   class="st2"
   inkscape:connector-curvature="0"
   style="fill:#191717" />
	<path
   id="path3988"
   d="m 360,767.1 c 0,0 0,0 0,0 0.1,-0.1 0,-0.1 0,-0.2 z"
   class="st2"
   inkscape:connector-curvature="0"
   style="fill:#191717" />
	<path
   id="path3990"
   d="m 641.2,202.7 c 0.1,0 0.1,0 0,0 2.8,0 5.3,-1.9 6,-4.7 2.2,-8.8 1.3,-16.3 -2.9,-22.5 -6.7,-10 -19,-11.9 -20.4,-12.1 -3.2,-0.4 -6.2,1.6 -6.9,4.8 -2.3,10.5 -1,18.9 4,25.1 7.4,9 19,9.3 20.2,9.4 z m -7,-20.2 c 1.2,1.9 1.9,4.1 1.9,6.7 -1.8,-0.7 -3.8,-1.8 -5.2,-3.6 -1.6,-2 -2.4,-4.6 -2.4,-7.9 2,1 4.2,2.6 5.7,4.8 z"
   class="st2"
   inkscape:connector-curvature="0"
   style="fill:#191717" />
	<path
   id="path3992"
   d="m 601,113.3 c -6.7,-10 -19,-11.9 -20.4,-12.1 -3.2,-0.4 -6.2,1.6 -6.9,4.8 -2.3,10.5 -1,18.9 4,25.1 7.2,9 18.8,9.3 20.1,9.3 0,0 0,0 0,0 2.8,0 5.3,-1.9 6,-4.7 2.3,-8.6 1.4,-16.2 -2.8,-22.4 z m -13.5,10.1 c -1.6,-2 -2.4,-4.6 -2.4,-7.9 2.1,1 4.3,2.6 5.7,4.8 1.2,1.9 1.9,4.1 1.9,6.7 -1.8,-0.7 -3.8,-1.8 -5.2,-3.6 z"
   class="st2"
   inkscape:connector-curvature="0"
   style="fill:#191717" />
	<path
   id="path3994"
   d="m 97.3,163.4 c -1.4,0.2 -13.6,2.1 -20.4,12.1 -4.1,6.2 -5.1,13.7 -2.9,22.5 0.7,2.7 3.2,4.7 6,4.7 0,0 0,0 0,0 1.3,0 12.9,-0.3 20.1,-9.3 5,-6.2 6.3,-14.7 4,-25.1 -0.6,-3.2 -3.6,-5.3 -6.8,-4.9 z m -6.7,22.2 c -1.4,1.8 -3.4,2.9 -5.3,3.6 0,-2.6 0.7,-4.9 1.9,-6.7 1.5,-2.2 3.7,-3.8 5.7,-4.8 0,3.3 -0.8,5.9 -2.3,7.9 z"
   class="st2"
   inkscape:connector-curvature="0"
   style="fill:#191717" />
	<path
   id="path3996"
   d="m 139.7,101.2 c -1.4,0.2 -13.6,2.1 -20.4,12.1 -4.1,6.2 -5.1,13.7 -2.9,22.5 0.7,2.7 3.2,4.7 6,4.7 0,0 0,0 0,0 1.3,0 12.9,-0.3 20.1,-9.3 5,-6.2 6.3,-14.7 4,-25.1 -0.7,-3.2 -3.6,-5.3 -6.8,-4.9 z m -6.8,22.2 c -1.4,1.8 -3.4,2.9 -5.3,3.6 0,-2.6 0.7,-4.9 1.9,-6.7 1.5,-2.2 3.7,-3.8 5.7,-4.8 0,3.3 -0.7,5.9 -2.3,7.9 z"
   class="st2"
   inkscape:connector-curvature="0"
   style="fill:#191717" />
	<path
   id="path3998"
   d="m 555.1,392 c 0.4,3.2 3,5.5 6.1,5.5 0.2,0 0.5,0 0.7,0 3.4,-0.4 5.8,-3.5 5.4,-6.9 -6.2,-54 -43.1,-92.2 -44.7,-93.8 -2.4,-2.4 -6.3,-2.5 -8.7,-0.1 -2.4,2.4 -2.5,6.3 -0.1,8.7 0.4,0.4 35.6,36.9 41.3,86.6 z"
   class="st2"
   inkscape:connector-curvature="0"
   style="fill:#191717" />
	<path
   id="path4000"
   d="m 159.1,397.4 c 0.2,0 0.5,0 0.7,0 3.1,0 5.8,-2.3 6.1,-5.5 5.7,-49.7 40.9,-86.2 41.2,-86.5 2.4,-2.4 2.3,-6.4 -0.1,-8.7 -2.4,-2.4 -6.4,-2.4 -8.7,0.1 -1.6,1.6 -38.4,39.8 -44.7,93.8 -0.3,3.4 2.1,6.4 5.5,6.8 z"
   class="st2"
   inkscape:connector-curvature="0"
   style="fill:#191717" />
</g><text
     id="text4013"
     y="404.16229"
     x="402.10025"
     style="font-style:normal;font-variant:normal;font-weight:normal;font-stretch:normal;font-size:74.66666412px;line-height:1.25;font-family:Dyuthi;-inkscape-font-specification:'Dyuthi, Normal';font-variant-ligatures:normal;font-variant-caps:normal;font-variant-numeric:normal;font-feature-settings:normal;text-align:start;letter-spacing:0px;word-spacing:0px;writing-mode:lr-tb;text-anchor:start;fill:#000000;fill-opacity:1;stroke:none"
     xml:space="preserve"><tspan
       y="404.16229"
       x="402.10025"
       id="tspan4011"
       sodipodi:role="line">w</tspan></text>
</g>
</svg>